<?xml version="1.0" encoding="UTF-8"?>
<svg id="Layer_1" data-name="Layer 1" xmlns="http://www.w3.org/2000/svg" viewBox="0 0 436.52 289.64">
  <defs>
    <style>
      .cls-1 {
        fill: none;
      }

      .cls-1, .cls-2, .cls-3, .cls-4, .cls-5, .cls-6, .cls-7 {
        stroke-width: 0px;
      }

      .cls-2 {
        fill: #c3bad8;
      }

      .cls-3 {
        fill: #a094b1;
      }

      .cls-4 {
        fill: #19293f;
      }

      .cls-5 {
        fill: #2f4976;
      }

      .cls-6 {
        fill: #b3a7c9;
      }

      .cls-7 {
        fill: #fff;
      }
    </style>
  </defs>
  <g>
    <path id="Egg_Outline" data-name="Egg Outline" class="cls-4" d="M273.37,46.86c-.54-2.18-2.84-5.4-6.39-9.43-2.52-2.87-6.39-6.45-11.67-10.35l-6.41-4.41c-2.52-1.63-5.26-3.28-8.24-4.94,0,0-2.32-1.62-2.11.86-4.15-3.21-12.36-10.57-17.42-11.67-5.55-1.2-35.57-11.82-48.18-4.18-12.61,7.64-22.82,25.36-28.58,44.8-.59,1.98-1.44,8.03-1.49,8.19-.92-.17-1.14,2.16-1.22,2.48-4.72,18.01-6.93,29.19-7.84,42.1-1.43,20.27-.25,20.1-.31,20.92-2.45,35.79-.74,35.88,1.77,60.45,5.27,51.52,33.08,74.76,35.48,75.27l8.87,2.02c-1.2.29-4.05,1.13-3.7,1.43,25.81,33.7,68.98,34.02,107.23,22.19,32.65-10.1,51.65-37.54,57.17-48.24,6.86-13.31,8.48-19.25,10.2-28.5,1.98-5.1,6.71-14.19,1.52-47.77-1.1-7.13-5.79-14.97-6.37-16.45-.63-1.62-3.28-4.43-7.32-18.33-4.2-14.44-21.07-32.5-23.89-36.62-.5-.73-10.11-10.69-13.3-15.17-3.84-5.4-11.31-13.27-16.78-18.82,0,0-7.27-7.79-8.05-7.6l-3.85,2.34"/>
    <path id="Egg_Foreground" data-name="Egg Foreground" class="cls-6" d="M347.09,145.49c-.51-1.49-2.23-2.02-2.81-3.5-.63-1.62-3.91-6.12-5.55-13.77-.01-.05-.02-.1-.03-.15-.01-.07-.02-.13-.04-.2h0c-.47-2.45-1.24-3.93-1.83-4.98-6.1-11.02-14.04-22.98-23.21-34.95-.13-.16-.24-.33-.36-.49-.54-.7-9.76-12.12-11.01-13.6-7.92-9.3-16.46-18.37-25.35-26.75-.7-.66-.94.5-.98,2.25-.02,1.07.02,2.35.09,3.59h0s-3.12-4.6-5.47-8.33c-.79-1.25-1.48-2.4-1.95-3.25-.02-.03-.04-.07-.05-.09,0,0,.02.05.03.07-2.66-4.04-4.97-6.03-6.48-7.26-7.03-5.74-14.18-10.91-21.31-15.34-.17-.11-.34-.22-.51-.33-.85-.52-1.09.11-1.08,1.14,0,.29.03.6.07.93v-.04l-7.5-5.96-.34-.27s-.49-.37-.46-.34c-2.61-1.99-4.96-3.22-6.05-3.71-16.52-7.46-32.4-9.87-46-4.54-15.03,5.89-25.68,20.63-32.77,40.02-.63,1.73-2.74,8.31-.87,18.23.03.16.04.22.04.25-.44-1.44-.78-2.88-1.19-4.07,0,0,0-.03,0-.04-.74-2.16-1.05-2.61-1.05-2.61h0c-.17-.3-.31-.46-.43-.41h0c-.06.03-.12.09-.17.25-.02.08-.03.16-.06.23-.61,2.24-1.12,4.59-1.66,6.92-2.63,13.63-6.3,41-5.47,44.95,1.21,5.78,1.33,7.57,2.21,10.76.11.36.2.68.32,1.06.54,1.5,2.6,4.56,7.12,10.97,0,0-.05-.04-.14-.11-3.44-2.39-4.98-5.07-4.98-5.07h0c-1.66-2.24-2.64-3.47-3.25-4.18-.76-.89-.92-.95-.92-.95h0c-.59-.58-1.01-.74-1.07-.07,0,.04-.02.06-.02.11-.13,16.46.93,32.92,2.93,48.11.23,1.74,1.8,11.86,1.87,12.25,0,.04.02.08.02.12,2.41,13.82,5.62,26.13,9.42,35.82,4.9,12.48,11.9,23.51,20.46,32.84,1.7,1.85,6.39,4.36,8.68,5.35,2.48,1.07,4.1,1.85,5.2,2.45.05.02.08.03.08.03,4.82,1.76,5.67,5.55,5.67,5.55,0,0,.03.15.03.22h0s0,.03-.02,0c0-.02-.02-.05-.05-.14-.06-.21-.75-1.11-1.6-2.04-.06-.07-.12-.13-.18-.2-.87-.94-1.88-1.87-2.56-2.12l-.03-.03h-.04c-1.2.29-3.33.11-4.27.08h0c-.88-.07-1.45-.05-1.1.24,28.69,24.13,69.34,32.2,106.69,17.55,31.13-12.21,53.21-37.56,62.38-67.2.25-.81-.02-3.98,2.6-11.37-.01.02-.02.04-.04.06.31-.79.54-1.46.61-1.88,2.94-16.95,1.72-34.81-4.19-52.1l-.02.04ZM240,24.74c-.02-.29-.08-.54-.11-.82.09.44.13.73.11.82Z"/>
    <g id="Egg_Shadows" data-name="Egg Shadows">
      <path class="cls-3" d="M273.84,59.9c-.37.78,1.89.15,2.31-2.37v-.05c.03-.17.04-.3.06-.46.18-1.41.1-2.39-.2-4.06h0s-3.12-4.6-5.47-8.33c-.79-1.25-1.48-2.4-1.95-3.25-.02-.03-.04-.07-.05-.1,0,0,.02.05.03.07.37.71,7.35,14.21,5.26,18.54h.01Z"/>
      <path class="cls-3" d="M147.17,68.38c-.84-1.22-1.4-2.72-1.86-4.22-.44-1.44-.78-2.88-1.19-4.07,0,0,0-.03,0-.04-.74-2.16-1.05-2.61-1.05-2.61h0s-.2-.14-.35.19c-.52,1.14,1.56,9.77,4.47,10.76h0Z"/>
      <path class="cls-3" d="M144.92,132.17s-.05-.04-.14-.11c-3.44-2.39-4.98-5.08-4.98-5.08h0c-1.66-2.24-2.64-3.47-3.25-4.18-.76-.89-.92-.95-.92-.95h0c-.74-.49-.21,2.86.59,4.71.84,1.96,8.71,5.59,8.71,5.59v.02Z"/>
      <path class="cls-3" d="M187.22,262.44c-.06-.07-.12-.13-.18-.2-.87-.94-1.88-1.87-2.56-2.12l-.03-.03h-.04c-1.2.29-3.33.11-4.27.08h0c2.49.45,7.35,4.18,8.52,4.5.14.04.19,0,.2-.06,0-.02-.02-.05-.05-.14-.06-.21-.75-1.11-1.6-2.04h0Z"/>
      <path class="cls-3" d="M347.09,145.49c-.51-1.49-2.23-2.02-2.81-3.5-.63-1.62-3.91-6.12-5.55-13.77-.01-.05-.02-.1-.03-.15-.01-.07-.02-.13-.04-.2,1.2,9.34,1.76,27.14-.66,47.02-.44-.29-.9-.68-1.36-1.2-.89-.97-1.85-2.4-2.89-4.3-1.04-1.9-2.19-4.42-3.46-7.55-1.27-3.14-1.93-6.08-1.98-8.81-.06-2.74.27-5.44.97-8.09.69-2.66,1.65-5.3,2.84-7.94,1.2-2.64,2.44-5.37,3.73-8.21.47-1.3.97-2.46,1.49-3.5.12-.23.23-.46.35-.69-.29-.68-.58-1.23-.84-1.7-.62-1.13-1.28-2.27-1.94-3.41-.62-1.06-1.25-2.13-1.89-3.21-1.28,2.48-2.63,5.08-4.02,7.82-2.93,5.6-5.31,10.25-7.13,13.97-1.81,3.71-3.09,7.05-3.84,10-.74,2.95-.94,5.82-.59,8.6.35,2.79,1.29,6.08,2.82,9.88,1.11,2.75,2.68,5.6,4.69,8.54,2.01,2.94,4.37,5.48,7,7.7,5.01,4.24,8.68,2.97,10.46,4.24,2.52,1.81,1.42,5.96-2.81,11.56-4.47-3.69-9.08-7.99-13.61-11.68-12.27-10.01-26.05-17.22-40.74-21.93.92-.4,1.84-.83,2.75-1.3,5.19-2.68,9.26-6.33,12.24-10.93,2.98-4.6,5.12-9.49,6.42-14.66,1.3-5.17,1.89-10.3,1.8-15.39-.03-1.77-.12-3.44-.26-5.04,3.66,2.09,7.37,2.41,11.12.9,4.32-1.74,7.74-4.38,10.26-7.88-.58-.91-1.17-1.82-1.77-2.73-.18-.27-.35-.54-.53-.82-.69-1.05-1.39-2.1-2.1-3.16-1.09,1.07-2.35,1.9-3.79,2.49-3.61,1.45-6.48,1.2-8.59-.77-2.11-1.96-3.98-4.94-5.59-8.92-1.3-3.23-2.2-6.82-2.68-10.77-.41-3.31-.47-6.52-.21-9.64-.25-.3-.48-.59-.69-.85h0c-.43-.52-.78-.96-1.04-1.27h0c-.13-.15-.23-.28-.31-.36-.95-1.12-1.92-2.24-2.89-3.35s-1.95-2.22-2.94-3.32c-.84,2.3-1.47,4.69-1.9,7.18-.86,4.99-1.04,10.03-.53,15.12.51,5.1,1.47,9.4,2.89,12.92,1.54,3.81,3.24,6.95,5.09,9.48,0,.63,0,1.34-.01,2.14-.02,2.09-.14,4.46-.38,7.12s-.68,5.48-1.32,8.47c-.64,2.99-1.57,5.89-2.76,8.7-1.2,2.81-2.71,5.41-4.53,7.8-1.82,2.38-4.05,4.26-6.69,5.63-3.55,1.84-6.91,2.75-10.09,2.73-3.19-.03-6.09-.68-8.72-1.97-2.63-1.29-5.01-3.09-7.13-5.4-2.12-2.3-3.91-4.75-5.37-7.34-1.55-2.77-2.56-5.95-3.02-9.51-.47-3.57-.38-7.13.25-10.69.64-3.56,1.88-7,3.73-10.33,1.85-3.32,4.32-6.25,7.4-8.76,1.97.02,3.87-.1,5.7-.36,1.83-.25,3.29-.66,4.38-1.23,1.37-.71,2.4-1.59,3.13-2.66.72-1.06,1.23-2.2,1.53-3.39.31-1.2.38-2.33.22-3.41-.15-1.07-.42-1.98-.8-2.7-.52-1-1.69-1.37-3.52-1.12-1.83.26-3.52.78-5.06,1.59-1.09.57-2.24,1.24-3.44,2.04-1.21.8-2.49,1.66-3.85,2.6-2.62-.6-5.68-1.79-9.19-3.54-3.51-1.76-6.55-4.57-9.13-8.42-3.33-5.08-5.34-10.35-6.04-15.82s-.43-10.62.8-15.47c1.23-4.85,3.28-9.2,6.13-13.04,2.63-3.54,5.67-6.28,9.12-8.24-1.06-.78-2.12-1.55-3.18-2.3-.08-.06-.16-.11-.23-.17-1.07-.75-2.13-1.49-3.2-2.22-2.39,1.54-4.69,3.32-6.9,5.34.18-.9.28-2.02.18-3.22h0c-.02-.29-.08-.54-.11-.82-.15-1.18-.37-2.3-.62-3.41v-.04l-7.5-5.96-.34-.27-.54-.43s.05.06.08.09c7.4,7.2,6.92,13.28,7.3,15.49v.04c-.74.73-1.48,1.49-2.2,2.28-4.37,4.81-7.78,10.18-10.24,16.13-2.46,5.95-3.72,12.23-3.81,18.85-.09,6.63,1.61,13.07,5.09,19.34,1.09,2.1,2.58,3.97,4.48,5.64s4.03,3.11,6.39,4.31,4.82,2.12,7.39,2.75c2.58.63,5.15.97,7.72,1.02-3.02,3.3-5.75,6.94-8.19,10.91-2.44,3.98-4.25,8.23-5.42,12.75-1.17,4.54-1.56,9.23-1.17,14.11.4,4.88,1.96,9.83,4.69,14.88,1.2,2.19,2.6,4.14,4.2,5.88-28.38-1.36-58.1,4.64-85.67,16.38-1.24.53-2.47,1.07-3.7,1.62-6.11,2.74-12.12,5.75-17.96,9.03,2.34,12.63,5.36,23.9,8.89,32.9,4.9,12.48,11.9,23.51,20.46,32.84.11.12.23.24.36.36.07.07.15.13.22.2,0,0,.02.02.04.03h0c1.17,1.02,2.98,2.15,4.71,3.1-2.24-1.99.56-3.61,3.56-4.77,32.87-12.68,80.41-17.38,104.02-12.79,6.49,1.26,23.22,4.85,30.44,5.71,5.15.61,2.02,18.93-33.89,37.59h0c2.35-.74,4.7-1.56,7.03-2.48,20.68-8.11,37.35-22.03,48.91-39.14h.01c.13-.19.24-.38.36-.56.27-.41.56-.81.82-1.22h-.02c5.28-8.17,9.43-17,12.3-26.27.05-.17.08-.46.12-.86h0v-.09c.02-.22.05-.47.08-.76v-.03c.02-.22.05-.46.09-.71v-.05c.11-.8.28-1.79.56-3.01.36-1.56.9-3.48,1.73-5.83-.01.02-.02.04-.04.06.31-.79.54-1.46.61-1.88,2.94-16.95,1.72-34.81-4.19-52.1l.03-.08Z"/>
      <path class="cls-3" d="M145,169.56c1.22-.65,2.36-1.44,3.41-2.36,1.04-.92,1.91-1.87,2.6-2.85.99-1.56,2.02-3.96,3.1-7.19.77-2.31,1.51-4.75,2.22-7.31.12.25.24.5.37.73,1.32,2.46,2.77,4.36,4.35,5.72,1.57,1.36,3.24,2.23,4.99,2.61,1.74.38,3.32.43,4.73.16,3.92-.78,7.74-2.98,11.46-6.59s7.22-8.2,10.5-13.76c.14,1.75.23,2.99.27,3.71.22,1.63.76,3.19,1.63,4.69.87,1.5,1.94,2.8,3.21,3.91,1.26,1.11,2.6,1.94,4.02,2.49,1.42.56,2.82.7,4.23.41,1.91-.38,3.92-1.43,6.03-3.16,2.1-1.73,4.25-3.85,6.41-6.37,2.16-2.52,4.26-5.34,6.31-8.46,2.04-3.12,3.95-6.27,5.72-9.44s3.36-6.23,4.76-9.17c1.4-2.94,2.51-5.49,3.34-7.64.56-1.37.77-2.45.61-3.26-.16-.8-.47-1.31-.93-1.54-.46-.22-1.01-.21-1.64.01-.63.23-1.19.71-1.67,1.43-.41.6-1.11,1.89-2.13,3.87s-2.28,4.29-3.79,6.94-3.17,5.46-4.99,8.43c-1.81,2.97-3.66,5.74-5.55,8.31-1.89,2.57-3.73,4.76-5.51,6.58s-3.37,2.86-4.78,3.14c-1.21.24-2.42-.09-3.65-1-1.22-.91-2.03-2.62-2.43-5.16-.24-1.73-.41-4.04-.52-6.95-.11-2.9-.22-5.96-.34-9.18,2.32-5.68,4.35-11.59,6.11-17.74,1.75-6.15,3.18-12.22,4.29-18.24,1.1-6.01,1.81-11.77,2.13-17.26.32-5.49.13-10.47-.54-14.93-.52-3.66-1.09-6.52-1.71-8.59-.62-2.07-1.31-3.58-2.08-4.52-.76-.95-1.57-1.46-2.43-1.55-.85-.09-1.78-.04-2.79.16-.8.16-1.63.48-2.47.96-.77.36-1.56.83-2.38,1.41-.83.58-1.66,1.37-2.5,2.38-.55,5.65-1,11.01-1.34,16.09-.35,5.08-.66,9.58-.92,13.5-.25,4.54-.5,8.77-.77,12.68-.1,2.63-.18,5.42-.22,8.35-.04,2.93-.13,5.93-.25,8.98-.58-1.35-1.36-2.76-2.33-4.24-.98-1.48-2.1-2.79-3.37-3.95-1.27-1.16-2.7-2.02-4.27-2.6-1.58-.57-3.22-.69-4.93-.35-3.92.78-7.59,2.69-11,5.72-3.42,3.03-6.28,6.78-8.57,11.26-2.3,4.48-3.93,9.53-4.9,15.15-.73,4.21-.94,8.48-.65,12.84-.47,1.84-.96,3.71-1.51,5.64-.84,3.01-1.7,5.81-2.56,8.38-.87,2.58-1.79,4.79-2.76,6.62-.98,1.84-1.93,2.97-2.87,3.38-1.12.5-2.1.63-2.94.39s-1.59-.72-2.24-1.44c-.65-.71-1.23-1.55-1.71-2.52-.41-.8-.72-1.57-.98-2.32h0c.21,2.39.44,4.75.68,7.09.03.26.05.52.08.78.26,2.41.54,4.79.85,7.14.03.21.08.56.14.99.08.02.16.06.25.08,1.09.19,2.25.15,3.48-.12,1.23-.27,2.45-.73,3.67-1.39l-.03.04ZM164.38,125.4c.64-4.1,1.69-8.04,3.13-11.82l5.07-9.94c1.94-2.84,4.07-4.49,6.38-4.95,1.61-.32,2.99.06,4.15,1.14,1.16,1.08,2.12,2.4,2.9,3.97s1.38,3.12,1.79,4.66c.41,1.54.67,2.61.79,3.21.24,1.2.62,2.05,1.13,2.52.51.47,1.27.35,2.28-.37.18-.14.34-.27.47-.41.13-.13.28-.27.47-.41-.11,2.11-.14,4.16-.12,6.13.03,1.98.03,3.97,0,5.95-.83,1.63-1.91,3.67-3.25,6.13s-2.84,4.9-4.5,7.32c-1.66,2.42-3.43,4.55-5.31,6.38-1.88,1.84-3.72,2.93-5.54,3.3-2.41.48-4.53-.2-6.36-2.03-1.82-1.83-3.12-5.18-3.87-10.04-.4-3.05-.28-6.63.37-10.72v-.02Z"/>
    </g>
    <g id="Egg_Highlight" data-name="Egg Highlight">
      <path class="cls-2" d="M157.81,97.24c1.24-7.01,4.73-14.73,4.95-15.24.67-1.57,4.48,5.95,4.48,5.95-2.46-11.5,4.99-6.75,3.85-32.75-1.69-38.61,24.53-47.65,24.53-47.65,0,0-18.76,3.54-22.58,9.67-9.27,14.9-11.2,57.17-11.2,57.17,0,0-1.76-8.06-5.06,9.62-.64,3.42-1.04,7.62-1.16,12.17-.35,12.8,1.35,5.81,2.19,1.06Z"/>
      <path class="cls-2" d="M158.24,160.14c-.34-2.07-2.09-1.56-1.62,5.5.3,4.41.74,7.89,1.22,10.63,1.23-.55,2.46-1.09,3.7-1.62-1.49-4.84-2.55-9.82-3.31-14.51h0Z"/>
    </g>
    <path id="Digital_Banner" data-name="Digital Banner" class="cls-5" d="M103.13,211.34c61.84-54.77,161.36-74.57,222.84-24.42,18.86,15.38,39.25,41.43,44.48-10.9,0,0,41.33,71.81-49.71,61.93-7.22-.78-32.1-1.35-38.59-2.62-37.35-7.26-134.54,8.72-138.9,42.74-8.72-20.93-11.18-37.11.73-50.79,5.11-5.87-21.76-17.83-40.85-15.93h0Z"/>
    <g id="Digital">
      <path class="cls-1" d="M303.76,199.96c.17-.97.16-1.63-.06-1.99l-.21-.48c-1.21-1.73-2.6-2.74-4.18-3.02-.29-.05-.57-.1-.86-.15-1.63-.29-3.13.22-4.51,1.54-1.19,1.97-2.13,4.86-2.82,8.69-.79,4.42-.89,7.78-.28,10.06.79,2.96,2.29,4.64,4.52,5.04.29.05.59.11.88.16,1.24.22,2.52,0,3.85-.66.21-.33.37-.83.5-1.51l3.16-17.66v-.02Z"/>
      <path class="cls-1" d="M227.85,190.69l-.33-.43c-1.66-1.43-3.47-2.08-5.45-1.95-.14,0-.27.02-.39.03-2.29.23-3.97,1.73-5.05,4.51-.56,1.44-.87,3.39-.93,5.82.02.73.04,1.49.1,2.3.29,4.41,1.15,7.65,2.57,9.74,1.46,2.07,3.48,3.01,6.08,2.84,1.99-.13,3.47-1.02,4.42-2.67.33-.56.54-1.08.64-1.55l-1.11-16.66c-.07-1.02-.25-1.68-.55-1.98h0Z"/>
      <path class="cls-1" d="M173.15,191.65c-2.54-.98-5.24-1.16-8.12-.54-.55.12-1.13.29-1.72.49-1.12.41-2.16.94-3.13,1.59-.88.71-1.46,1.44-1.76,2.18-.32.8-.28,1.84.11,3.12l11.11,32.29c.29.84.64,1.45,1.05,1.83.02,0,.04,0,.06.02,1.83.24,4.07-.09,6.71-1,.08-.03.16-.05.22-.08,2.45-.84,4.51-2.81,6.19-5.89,1.38-3.12,2.14-6.28,2.26-9.49.12-3.09-.44-6.44-1.69-10.05-.09-.25-.18-.53-.28-.82-1.23-3.59-2.6-6.47-4.09-8.67-2.21-2.39-4.52-4.06-6.93-4.99h0Z"/>
      <path class="cls-4" d="M170.7,232.62c-.41-.38-.76-.98-1.05-1.83l-11.11-32.29c-.4-1.28-.43-2.33-.11-3.12.29-.74.88-1.47,1.76-2.18.97-.65,2.01-1.18,3.13-1.59.59-.2,1.17-.37,1.72-.49,2.88-.62,5.59-.44,8.12.54,2.41.93,4.72,2.6,6.93,4.99-.18-.26-.36-.52-.54-.76-2.65-3.24-5.45-5.43-8.39-6.57-2.62-1.01-5.41-1.2-8.37-.56-.57.13-1.16.29-1.77.51-1.15.42-2.23.97-3.23,1.64-.9.74-1.51,1.49-1.81,2.25-.33.82-.29,1.9.12,3.22l11.45,33.29c.32.93.71,1.59,1.17,1.97.61.5,1.27.83,1.99.98h0Z"/>
      <path class="cls-4" d="M148.89,197.51s-.02,0-.04,0l-3.11,2.59c.42-.1,1.76-.34,4.01-.73.11-.02.22-.02.33-.03l-.27-.79c-.17-.49-.48-.83-.92-1.03h0Z"/>
      <path class="cls-4" d="M188.09,196.73c1.3,2.03,2.37,4.21,3.18,6.56,1.19,3.46,1.71,6.9,1.56,10.3-.14,3.38-.74,6.38-1.82,9.02-1.08,2.69-2.81,5.21-5.19,7.56-2.31,2.28-4.94,3.93-7.9,4.95-3.27,1.13-6.73,1.64-10.38,1.55-2.95-.08-5.38-.13-7.32-.16-.87.51-1.42.81-1.63.9,1.87-.02,5.56.03,11.06.18,3.54.09,6.89-.41,10.07-1.5,2.87-.99,5.42-2.59,7.66-4.8,2.31-2.28,3.99-4.73,5.04-7.33,1.04-2.56,1.63-5.48,1.77-8.75.15-3.3-.36-6.63-1.51-9.99-1.07-3.12-2.61-5.94-4.57-8.48h-.02Z"/>
      <path class="cls-4" d="M199.38,179.87c-.61.89-1.45,1.43-2.51,1.62s-2.03-.03-2.92-.65c-.1-.07-.19-.16-.28-.24,0,.12,0,.23.03.35.19,1.05.71,1.88,1.56,2.48.86.61,1.8.82,2.83.63s1.84-.71,2.44-1.57c.59-.86.8-1.82.61-2.87-.15-.83-.51-1.51-1.07-2.06.02.83-.2,1.6-.69,2.31Z"/>
      <path class="cls-4" d="M195.44,192.61c-.19-.11-.43-.19-.7-.25-1.53.9-2.65,1.59-3.34,2.05.23-.04,1.31-.03,3.26.04.62,0,1.13.08,1.54.2l-.19-1.08c-.09-.49-.28-.81-.57-.96h0Z"/>
      <path class="cls-4" d="M199.42,219.76c-.82.96-1.85,1.7-3.12,2.18l16.54-2.94c-1.44-.04-2.69-.37-3.76-.96l-9.67,1.72h0Z"/>
      <path class="cls-4" d="M205.8,214.39c.24.33.5.62.78.9l-4.78-26.87c-.22.11-.41.21-.62.31l4.52,25.4.11.26h-.01Z"/>
      <path class="cls-4" d="M230.12,216.69c0-.18-.03-.38-.04-.6l-.09-1.35c-1.88,1.53-3.99,2.37-6.32,2.52-2.43.16-4.71-.44-6.82-1.8-2.09-1.34-3.83-3.29-5.22-5.84-1.37-2.51-2.16-5.42-2.38-8.7,0-.16,0-.33-.02-.49-.04.79-.03,1.59.02,2.4.22,3.29,1.01,6.19,2.38,8.7,1.39,2.55,3.13,4.5,5.22,5.84,2.11,1.36,4.38,1.96,6.82,1.8,2.33-.16,4.44-1,6.32-2.52l.09,1.35c.02.22.03.42.04.6,0,.13,0,.25.02.37.04-.72.04-1.47,0-2.28h-.01Z"/>
      <path class="cls-4" d="M221.4,226.85c.04-.25.07-.51.05-.77-.02-.28-.06-.54-.13-.8-.14.47-.37.92-.73,1.35.23.11.5.18.81.22Z"/>
      <path class="cls-4" d="M231.64,225.96c-2.74,2.22-5.58,3.43-8.53,3.63-.24.02-.48.02-.72.02-3.17-.03-5.61-.84-7.34-2.43-.69-.63-1.12-1.35-1.31-2.13-.09.4-.14.82-.11,1.28.07,1.04.54,1.96,1.42,2.76,1.73,1.59,4.17,2.4,7.34,2.43.24,0,.48,0,.72-.02,2.95-.2,5.79-1.41,8.53-3.63,2.94-2.4,4.4-5.82,4.36-10.26l-.04-.65c-.23,3.83-1.66,6.84-4.32,9Z"/>
      <path class="cls-4" d="M228.4,190.76c-.07-1.02-.25-1.68-.55-1.98l-.33-.43c-1.66-1.43-3.47-2.08-5.45-1.95-.14,0-.27.02-.39.02-2.29.23-3.97,1.74-5.05,4.51-.7,1.8-1.01,4.39-.93,7.73.06-2.43.37-4.37.93-5.82,1.08-2.78,2.76-4.28,5.05-4.51.12,0,.25-.02.39-.03,1.97-.13,3.79.52,5.45,1.95l.33.43c.3.3.48.96.55,1.98l1.11,16.66c.05-.23.09-.45.08-.66l-.02-.27-1.17-17.64h0Z"/>
      <path class="cls-4" d="M234.64,189.29c-.25.22-.35.57-.32,1.07l.08,1.23c.05-.15.13-.29.24-.39.4-.35.99-.64,1.77-.87,1.83-.52,2.97-.82,3.42-.89-.6-.23-1.7-.59-3.29-1.06-.05,0-.09.02-.14.04-.79.23-1.38.52-1.77.87h0Z"/>
      <path class="cls-4" d="M250.27,179.64c.7.78,1.57,1.2,2.61,1.26s1.95-.27,2.73-.98c.78-.71,1.19-1.59,1.25-2.66.02-.29,0-.56-.04-.82-.18.28-.39.54-.65.78-.8.73-1.74,1.06-2.81,1.01-1.08-.06-1.98-.49-2.69-1.3-.46-.51-.74-1.09-.88-1.72-.27.5-.44,1.04-.47,1.66-.06,1.06.26,1.99.96,2.77h0Z"/>
      <path class="cls-4" d="M248.61,211.72l1.16-21.91c.02-.5-.09-.85-.33-1.07-.28-.25-.7-.47-1.23-.66-1.94.6-3.35,1.06-4.19,1.38.23,0,1.28.27,3.16.78.88.22,1.52.51,1.91.86.24.21.35.55.32,1.04l-1.06,20.11c.06-.1.13-.18.2-.28l.07-.24h-.01Z"/>
      <path class="cls-4" d="M242.54,217.39l16.78.89c-1.36-.36-2.48-.94-3.38-1.73l-9.94-.53c-1,.72-2.15,1.18-3.46,1.37Z"/>
      <path class="cls-4" d="M262.23,218.57l16.67,2.08c-1.35-.46-2.45-1.14-3.3-2.01l-9.78-1.22c-1.06.67-2.26,1.06-3.6,1.15h0Z"/>
      <path class="cls-4" d="M269.19,213.36l2.87-23.08-6.33-.79-.24-.03c-1.47-.1-2.74.04-3.84.41l-2.73,3.44c1.38-1.18,3.28-1.68,5.73-1.51l.23.03,6.14.76-2.74,21.96c.28-.3.55-.61.81-.96l.09-.23h0Z"/>
      <path class="cls-4" d="M273.51,178.68c.06-.46-.03-.82-.26-1.09-.16-.19-.48-.39-.91-.59-2.21.5-3.91.93-5.1,1.29,1.05.36,2.1.72,3.15,1.07.94.31,1.53.62,1.79.93.22.26.3.61.25,1.06l-.72,5.81.74.09,1.07-8.57h0Z"/>
      <path class="cls-4" d="M283.41,196.04c-.06.5-.18.98-.36,1.45l6.22-7.84c-.22.19-.46.35-.71.51l-4.1,5.17c.18-.48.3-.98.37-1.49.16-1.29-.46-2.02-1.87-2.2-.04,0-.09,0-.15-.02l-.12-.02-4.73-.59-.3,2.4,3.68.46.12.02c.06,0,.11,0,.14.02,1.37.17,1.97.88,1.82,2.13h-.01Z"/>
      <path class="cls-4" d="M305.54,195.33c-1.24-1.78-2.68-2.82-4.31-3.12-.3-.05-.59-.11-.89-.16-2.22-.4-4.22.66-5.99,3.16-.14.2-.27.41-.41.63,1.38-1.31,2.88-1.83,4.51-1.54.29.05.57.1.86.15,1.58.28,2.98,1.29,4.18,3.02l.21.48c.21.35.23,1.02.06,1.99l-3.16,17.66c-.12.69-.29,1.19-.5,1.51.42-.21.85-.46,1.28-.76l.37-.39c.35-.26.62-.89.8-1.9l3.26-18.2c.18-1,.16-1.69-.06-2.05l-.22-.5v.02Z"/>
      <path class="cls-4" d="M311.65,198.93l-.13.74c.11,0,.22-.02.33-.03,1.86-.08,3.01-.09,3.43-.03-.56-.38-1.5-.96-2.82-1.74-.08.03-.17.06-.24.1-.29.15-.48.47-.57.96h0Z"/>
      <path class="cls-4" d="M309.55,221.34c-1.52.27-3.39.59-5.64.96-3.51.57-6.4.65-8.66.25-2.6-.46-4.8-1.62-6.63-3.47-1.77-1.8-3.01-4.06-3.72-6.79-.7-2.66-.74-5.72-.13-9.16.45-2.5,1.32-4.76,2.58-6.81-.31.37-.61.75-.89,1.16-1.56,2.22-2.59,4.74-3.1,7.57-.6,3.34-.56,6.3.12,8.88.69,2.64,1.89,4.84,3.61,6.58,1.76,1.79,3.91,2.91,6.43,3.37,2.19.39,4.99.31,8.4-.24,4.89-.8,8-1.36,9.34-1.69-.28-.06-.85-.27-1.71-.61h0Z"/>
      <path class="cls-4" d="M318.84,221.93l.1-.22,6.42-34.35c.09-.49.03-.86-.19-1.1-.27-.33-.74-.64-1.39-.94-3.22.54-5.24.9-6.05,1.08.17.05,1.21.46,3.14,1.24.81.33,1.36.68,1.67,1.05.21.24.27.59.18,1.07l-6.23,33.32-.1.22c-.41.5-.85.94-1.32,1.32,1.43-.48,2.68-1.36,3.76-2.68h0Z"/>
      <path class="cls-4" d="M310.28,226.28l16.52,3.09c-1.36-.56-2.43-1.33-3.23-2.29l-9.52-1.78c-1.12.64-2.38.97-3.76.98h0Z"/>
      <path class="cls-7" d="M177.92,235.13c2.96-1.02,5.59-2.67,7.9-4.95,2.38-2.35,4.11-4.87,5.19-7.56,1.08-2.64,1.68-5.64,1.82-9.02.15-3.41-.37-6.84-1.56-10.3-.81-2.35-1.88-4.53-3.18-6.56-.61-.96-1.26-1.9-1.98-2.78-2.25-2.77-4.62-4.84-7.09-6.2-2.92-1.62-5.89-2.61-8.93-2.99-3.22-.38-6.05-.15-8.48.69-.32.11-.61.21-.89.31-3.31,1.14-6.1,2.59-8.35,4.36l-9.47,7.9c.44-.1,1.82-.35,4.13-.75.64-.1,1.24-.02,1.82.23,0,0,.02,0,.04,0,.45.2.75.54.92,1.03l.27.79,11.18,32.5c.18.53.17.95-.03,1.25-.31.48-.86.97-1.66,1.46-1.96,1.17-3.1,1.82-3.43,1.96.92,0,2.29,0,4.08.03,1.94.03,4.37.08,7.32.16,3.64.09,7.1-.43,10.38-1.55v-.02ZM156.09,196.38c-.41-1.32-.45-2.4-.12-3.22.3-.77.91-1.52,1.81-2.25,1-.67,2.07-1.22,3.23-1.64.61-.21,1.2-.38,1.77-.51,2.97-.64,5.76-.46,8.37.56,2.94,1.14,5.74,3.33,8.39,6.57.18.24.36.5.54.76,1.49,2.2,2.85,5.08,4.09,8.67.1.3.2.57.28.82,1.24,3.61,1.8,6.96,1.69,10.05-.12,3.21-.88,6.37-2.26,9.49-1.68,3.08-3.74,5.04-6.19,5.89-.06.02-.14.05-.22.08-2.64.91-4.87,1.24-6.71,1-.02,0-.04,0-.06-.02-.71-.15-1.38-.48-1.99-.98-.46-.39-.85-1.04-1.17-1.97l-11.45-33.29h0Z"/>
      <path class="cls-7" d="M193.67,180.6c.09.08.18.17.28.24.88.63,1.85.84,2.92.65,1.06-.19,1.9-.73,2.51-1.62.49-.71.71-1.48.69-2.31,0-.21-.02-.43-.06-.65-.19-1.08-.73-1.94-1.61-2.56s-1.86-.84-2.92-.65-1.9.73-2.51,1.62-.82,1.88-.63,2.96c.17.95.62,1.72,1.33,2.32h0Z"/>
      <path class="cls-7" d="M212.08,217.51c-2.28-.07-4.11-.81-5.5-2.22-.27-.28-.54-.57-.78-.9l-.11-.26-4.52-25.4-.49-2.75c-.84.41-1.6.81-2.28,1.2-4.32,2.43-7.13,4.09-8.43,4.97.24-.04,1.36-.03,3.36.04.56,0,1.02.07,1.41.16.27.07.51.15.7.25.29.15.48.47.57.96l.19,1.08,3.65,20.53-.02.25c-.85,2.51-2.46,4.21-4.81,5.12l4.4-.78,9.67-1.72,2.99-.53h0Z"/>
      <path class="cls-7" d="M230.46,184.73c-3.43-.95-6.22-1.36-8.37-1.22-2.77.18-5.16,1.09-7.18,2.73-1.94,1.57-3.42,3.68-4.45,6.33-.95,2.47-1.36,5.08-1.24,7.85,0,.16,0,.33.02.49.22,3.29,1.01,6.19,2.38,8.7,1.39,2.55,3.13,4.5,5.22,5.84,2.11,1.36,4.39,1.96,6.82,1.8,2.33-.16,4.44-1,6.32-2.52l.09,1.35c0,.22.03.42.04.6.05.81.05,1.57,0,2.28-.1,1.84-.51,3.37-1.24,4.59-.8,1.28-2.14,2.2-4.02,2.79-.98.31-1.83.48-2.55.53-.34.02-.64,0-.92-.02-.31-.04-.58-.11-.81-.22.36-.43.59-.88.73-1.35.11-.36.16-.73.13-1.11-.07-1.08-.52-2.02-1.36-2.82-.83-.81-1.79-1.17-2.87-1.1-1.1.07-2,.51-2.71,1.32-.67.76-.97,1.72-.89,2.85,0,.22.06.43.11.63.19.78.62,1.49,1.31,2.13,1.73,1.59,4.17,2.4,7.34,2.43.24,0,.48,0,.72-.02,2.95-.2,5.79-1.41,8.53-3.63,2.66-2.16,4.09-5.17,4.32-9,.02-.41.05-.83.04-1.26l-1.6-24.1-.08-1.23c-.03-.5.07-.86.32-1.07.4-.35.99-.64,1.77-.87.05,0,.09-.03.14-.04,1.75-.5,2.85-.78,3.29-.85-1.19-.46-4.32-1.4-9.38-2.8h.02ZM229.5,209.33c-.11.47-.31.99-.64,1.55-.95,1.64-2.43,2.53-4.42,2.67-2.59.17-4.62-.77-6.08-2.84-1.42-2.09-2.28-5.33-2.57-9.74-.05-.81-.08-1.57-.1-2.3-.07-3.34.23-5.92.93-7.73,1.08-2.77,2.76-4.28,5.05-4.51.12,0,.25-.02.39-.02,1.97-.13,3.79.52,5.45,1.95l.33.43c.3.3.48.96.55,1.98l1.17,17.64.02.27c0,.21-.03.43-.08.66h0Z"/>
      <path class="cls-7" d="M254.59,212.3l-.05-.27,1.51-28.55c-.91.21-1.74.43-2.49.65-4.76,1.39-7.87,2.37-9.34,2.93.24,0,1.33.28,3.26.8.27.07.51.14.73.22.54.19.95.41,1.23.66.25.21.36.57.33,1.07l-1.16,21.91-.07.24c-.06.1-.13.19-.2.28-1.38,2.07-3.26,3.28-5.65,3.61l3.31.18,9.94.53,4.05.21c-2.64-.7-4.45-2.19-5.41-4.46h.01Z"/>
      <path class="cls-7" d="M253.36,178.23c1.08.06,2.02-.28,2.81-1.01.26-.24.47-.5.65-.78.37-.57.6-1.22.64-1.96.06-1.1-.27-2.05-.99-2.86s-1.62-1.24-2.69-1.3c-1.08-.06-2.02.28-2.81,1.01-.8.73-1.23,1.64-1.29,2.74-.02.4.03.78.11,1.14.14.63.42,1.21.88,1.72.72.81,1.61,1.24,2.69,1.3h0Z"/>
      <path class="cls-7" d="M282.69,191.61l.12.02c.06,0,.11,0,.15.02,1.41.18,2.03.91,1.87,2.2-.06.52-.19,1.01-.37,1.49l4.1-5.17,2.31-2.91c-1.42,1.21-3.39,1.73-5.9,1.56l-.24-.03-6.39-.8,1.89-15.17c-.91.15-1.75.31-2.53.47-4.45.94-7.62,1.69-9.52,2.26,1.08.38,2.16.74,3.25,1.1.37.12.67.25.94.37.43.2.74.39.91.59.23.27.31.63.26,1.09l-1.07,8.57-.74-.09-3.93-.49h-.12c-.06-.02-.11-.03-.15-.03-1.41-.18-2.03-.91-1.87-2.2.06-.52.19-1.01.37-1.5l-6.41,8.08c.59-.51,1.28-.88,2.07-1.15,1.09-.37,2.37-.51,3.84-.41l.24.03,6.33.79-2.87,23.08-.09.23c-.25.35-.53.66-.81.96-1.43,1.52-3.2,2.36-5.3,2.51l2.84.35,9.78,1.22,4.57.57c-2.59-.89-4.28-2.5-5.08-4.83l-.03-.28,2.58-20.68.3-2.4,4.73.59h-.03Z"/>
      <path class="cls-7" d="M284.9,212.28c.71,2.73,1.95,4.99,3.72,6.79,1.82,1.85,4.03,3.01,6.63,3.47,2.26.41,5.15.32,8.66-.25,2.25-.37,4.12-.68,5.64-.96,1.88-.34,3.23-.6,3.99-.79-.43-.1-1.53-.52-3.31-1.26-.76-.32-1.31-.67-1.67-1.06-.21-.22-.26-.58-.17-1.09l3.13-17.47.13-.74c.09-.49.28-.81.57-.96.07-.04.16-.07.24-.1.44-.18,1-.28,1.69-.31,1.92-.08,3.1-.09,3.54-.04-1.18-.8-3.98-2.46-8.42-4.98-3.1-1.75-5.78-2.83-8.04-3.24-2.6-.47-5.07-.15-7.42.95-2.28,1.07-4.23,2.76-5.84,5.08-.23.32-.41.66-.62.99-1.25,2.04-2.13,4.3-2.58,6.81-.62,3.44-.57,6.5.13,9.16ZM305.81,197.88l-3.26,18.2c-.18,1-.45,1.64-.8,1.9l-.37.39c-.43.3-.86.55-1.28.76-1.33.66-2.61.89-3.85.66-.3-.05-.59-.11-.88-.16-2.22-.4-3.73-2.08-4.52-5.04-.61-2.28-.51-5.63.28-10.06.68-3.82,1.63-6.71,2.82-8.69.13-.22.27-.44.41-.63,1.77-2.5,3.76-3.56,5.99-3.16.3.05.59.11.89.16,1.63.29,3.07,1.33,4.31,3.12l.22.5c.22.36.24,1.05.06,2.05h-.02Z"/>
      <path class="cls-7" d="M324.79,223.07v-.28l7.63-40.89c-.91.08-1.76.18-2.56.32-5.35.87-8.56,1.43-9.64,1.67.17.05,1.25.48,3.24,1.28.12.05.22.1.33.15.65.3,1.12.61,1.39.94.22.24.28.61.19,1.1l-6.42,34.35-.1.22c-1.08,1.31-2.33,2.2-3.76,2.68-.8.27-1.64.41-2.55.41l1.51.28,9.52,1.78,6,1.12c-2.53-1.04-4.12-2.75-4.77-5.13h0Z"/>
    </g>
  </g>
  <g id="Bad_Egg_Wordmark" data-name="Bad Egg Wordmark">
    <g>
      <path class="cls-4" d="M436.32,43c-.32-.68-.86-1-1.6-.97-.75.03-1.55.41-2.38,1.12-.84.71-1.5,1.74-1.97,3.06-.62,1.58-1.68,3.63-3.18,6.17-1.5,2.55-3.25,5.27-5.26,8.2-2.01,2.92-4.17,5.83-6.49,8.73-2.32,2.9-4.62,5.44-6.91,7.62-.08-4.02-.17-8.15-.25-12.37s-.13-8.1-.14-11.64c-.02-3.54-.06-6.58-.13-9.14-.08-2.56-.1-4.2-.07-4.91.03-1.93.07-3.4.12-4.42s.14-1.88.28-2.57c.14-.69.27-1.36.41-2,.15-.64.33-1.54.55-2.71-.09-.38-.65-.7-1.68-.95s-2.2-.22-3.53.12c-2.38.59-4.02,1.62-4.92,3.11s-1.43,3.97-1.58,7.44c-.07.53-.08,1.11-.02,1.75.06.65.06,1.27,0,1.89-.66-1.45-1.5-2.99-2.5-4.61s-2.23-3.09-3.66-4.4c-1.44-1.31-3.05-2.31-4.83-2.98s-3.72-.75-5.82-.23c-4.48,1.1-8.19,3.49-11.13,7.14-2.94,3.66-5.15,7.79-6.64,12.4-1.49,4.62-2.34,9.37-2.54,14.28-.08,1.92-.08,3.74,0,5.45-.22.52-.44,1.05-.69,1.61-1.19,2.7-2.61,5.62-4.27,8.75-1.66,3.14-3.47,6.28-5.43,9.42-1.97,3.15-3.96,5.93-5.99,8.37-.55-3.98-1.11-8.07-1.68-12.26s-1.07-8.03-1.49-11.55c-.42-3.5-.82-6.53-1.19-9.06-.37-2.53-.59-4.15-.64-4.86-.19-1.92-.33-3.39-.39-4.41-.07-1.02-.07-1.88-.02-2.58.05-.7.11-1.38.18-2.03s.14-1.57.23-2.76c-.14-.36-.73-.62-1.77-.75-1.05-.13-2.21.04-3.5.53-2.3.86-3.81,2.08-4.53,3.66s-.95,4.11-.7,7.57c-.01.53.05,1.11.18,1.74s.21,1.26.23,1.88c-.82-1.37-1.83-2.8-3.02-4.3-1.19-1.49-2.57-2.81-4.15-3.95s-3.29-1.93-5.14-2.39-3.79-.32-5.81.44c-4.32,1.62-7.73,4.41-10.22,8.38-2.5,3.97-4.22,8.34-5.16,13.09-.95,4.76-1.24,9.58-.87,14.47.36,4.9,1.18,9.04,2.46,12.45,1.38,3.68,2.93,6.74,4.65,9.2,0,.28-.02.58-.03.89-.01.37-.02.74-.04,1.16-.07,2-.24,4.27-.53,6.81s-.78,5.23-1.46,8.08c-.69,2.84-1.64,5.6-2.85,8.27-1.22,2.66-2.72,5.12-4.53,7.36-1.8,2.24-3.98,3.98-6.54,5.23-3.44,1.67-6.69,2.47-9.73,2.37-3.05-.1-5.82-.8-8.31-2.1s-4.72-3.08-6.69-5.34c-1.97-2.25-3.63-4.64-4.96-7.16-1.42-2.69-2.31-5.76-2.67-9.18-.36-3.43-.2-6.84.5-10.23.7-3.4,1.97-6.66,3.82-9.81,1.85-3.14,4.28-5.88,7.29-8.22,1.89.06,3.71,0,5.46-.21,1.76-.2,3.17-.56,4.22-1.07,1.33-.65,2.34-1.47,3.06-2.47.71-1,1.23-2.07,1.55-3.21.32-1.14.42-2.22.3-3.26-.12-1.03-.35-1.9-.7-2.61-.47-.97-1.59-1.36-3.34-1.15-1.76.2-3.39.67-4.88,1.4-1.06.52-2.18,1.14-3.35,1.87-1.17.74-2.42,1.53-3.75,2.4-2.49-.64-5.4-1.85-8.72-3.61-3.32-1.77-6.17-4.53-8.54-8.29-3.06-4.95-4.86-10.04-5.4-15.3-.54-5.25-.16-10.18,1.14-14.8,1.3-4.61,3.36-8.73,6.19-12.35.41-.53.83-1.03,1.26-1.51.12-.14.25-.27.37-.4.32-.36.65-.7.99-1.04.13-.13.26-.26.39-.38.38-.37.77-.72,1.16-1.06.08-.07.15-.13.23-.2.5-.42,1-.82,1.52-1.2.55-.4,1.12-.78,1.7-1.13.13-.08.25-.16.38-.23.59-.35,1.18-.68,1.79-.98,2.73-1.33,5.1-1.52,7.09-.59,1.99.94,3.71,2.8,5.17,5.59.93,1.91,1.63,4.06,2.1,6.45h0s.02.08.03.12c.48,2.44.62,4.97.42,7.58-.08.97-.22,1.92-.4,2.87,1.85,2.84,3.58,5.38,3.58,5.38h0c-.07-1.23-.11-2.51-.09-3.58.04-1.75.28-2.91.98-2.25,2.37,2.23,4.71,4.52,7.03,6.85.06-.14.11-.27.17-.42.83-2.32,1.3-5,1.4-8.05s-.16-6.28-.78-9.69-1.69-6.55-3.19-9.42c-.86-1.55-2.13-3.08-3.8-4.62-1.68-1.53-3.66-2.75-5.95-3.65-2.3-.9-4.9-1.32-7.82-1.27-2.92.06-6.06.9-9.41,2.54-.59.29-1.17.59-1.75.91-.44.24-.88.5-1.31.75-.12.07-.24.14-.36.21-.54.33-1.08.67-1.61,1.02h0c-1.19.79-2.37,1.64-3.52,2.55h0c-.59.47-1.18.96-1.76,1.46-.04.04-.08.07-.13.11-.53.46-1.05.94-1.57,1.43-.08.08-.17.16-.26.24-.59.56-1.17,1.14-1.74,1.74-4.3,4.5-7.7,9.57-10.2,15.2-2.5,5.64-3.86,11.63-4.1,17.96-.25,6.35,1.23,12.56,4.41,18.65.99,2.03,2.37,3.87,4.16,5.51,1.78,1.64,3.79,3.07,6.01,4.28,2.23,1.21,4.56,2.15,7.01,2.81,2.46.66,4.91,1.05,7.37,1.16-2.97,3.09-5.67,6.5-8.11,10.26-2.43,3.75-4.26,7.78-5.49,12.09-1.23,4.32-1.72,8.8-1.46,13.48s1.64,9.47,4.13,14.36c1.94,3.75,4.48,6.85,7.64,9.3s6.66,4.21,10.52,5.28c3.85,1.07,7.88,1.4,12.1.98s8.4-1.63,12.55-3.66c5.03-2.44,9.03-5.84,11.99-10.18,2.96-4.33,5.13-8.96,6.5-13.89,1.37-4.92,2.06-9.82,2.09-14.69,0-.79,0-1.55-.02-2.3,0-.13,0-.25-.01-.38-.02-.73-.05-1.45-.1-2.15,3.46,2.09,7,2.48,10.63,1.13,4.32-1.62,7.74-4.16,10.27-7.62,2.53-3.47,4.39-7.25,5.57-11.36.21,1.39.4,2.97.59,4.73s.4,3.65.63,5.66c-1.23,2.03-2.5,4.23-3.81,6.61s-2.68,4.88-4.1,7.51c-2.94,5.29-5.33,9.69-7.16,13.21-1.83,3.51-3.13,6.68-3.91,9.48s-1.04,5.55-.77,8.22c.27,2.68,1.09,5.85,2.46,9.53,1,2.66,2.43,5.43,4.29,8.29,1.86,2.87,4.03,5.38,6.52,7.55,2.48,2.16,5.14,3.73,7.98,4.72,2.83.98,5.76.9,8.8-.23,2.02-.76,3.52-2.37,4.48-4.83.97-2.46,1.6-5.39,1.89-8.8s.34-7.15.13-11.2c-.21-4.07-.57-8.1-1.07-12.1-.5-4.01-1.03-7.79-1.58-11.36s-1.01-6.54-1.37-8.92c-.33-2.29-.66-4.84-.98-7.65-.32-2.82-.8-6.46-1.42-10.94,1.63-2.08,3.56-4.71,5.77-7.89,2.21-3.19,4.39-6.73,6.56-10.63,1.59-2.87,3.09-5.85,4.51-8.94,1.7,5.42,3.98,9.42,6.86,11.97,3.42,3.04,7.19,4.06,11.29,3.05,4.48-1.1,8.17-3.23,11.08-6.37,2.92-3.15,5.2-6.69,6.85-10.64.04,1.41.06,3,.04,4.77-.02,1.78-.03,3.67-.04,5.7-1.46,1.87-2.97,3.92-4.55,6.13s-3.23,4.53-4.95,6.98c-3.54,4.92-6.42,9.01-8.64,12.29s-3.89,6.27-4.99,8.97c-1.11,2.7-1.68,5.39-1.72,8.08-.04,2.69.41,5.94,1.35,9.75.68,2.76,1.78,5.68,3.3,8.75,1.51,3.06,3.38,5.81,5.6,8.24,2.22,2.44,4.68,4.31,7.38,5.61,2.69,1.31,5.62,1.57,8.76.8,2.09-.52,3.76-1.94,5.01-4.27,1.24-2.33,2.21-5.17,2.9-8.53s1.16-7.06,1.43-11.12c.26-4.06.37-8.11.34-12.14-.04-4.03-.12-7.85-.25-11.46s-.24-6.61-.33-9.02c-.07-2.31-.09-4.88-.08-7.71,0-2.83-.04-6.51-.15-11.03,1.86-1.88,4.08-4.27,6.65-7.17,2.56-2.91,5.15-6.17,7.74-9.8,2.59-3.62,5.06-7.47,7.39-11.53,2.33-4.06,4.16-8.13,5.48-12.19.45-1.43.52-2.48.2-3.16l-.06-.03ZM331.35,85.22c-.15,1-.43,2.36-.83,4.08s-1.04,3.51-1.92,5.36-1.98,3.6-3.3,5.24c-1.32,1.65-2.95,2.83-4.88,3.56-3.49,1.3-6.23.99-8.21-.94-1.98-1.93-3.69-4.82-5.14-8.68-1.17-3.12-1.94-6.59-2.31-10.38-.37-3.78-.3-7.43.23-10.93s1.48-6.55,2.86-9.17c1.38-2.61,3.22-4.35,5.52-5.21,1.38-.51,2.89-.24,4.55.81,1.65,1.06,3.31,3.11,4.97,6.16.33.61.67,1.32,1.04,2.13.35.81.78,1.59,1.27,2.35s1.02,1.4,1.58,1.92,1.13.73,1.72.61c.67-.15,1.23.27,1.65,1.26.42,1,.74,2.19.95,3.58.2,1.39.31,2.87.32,4.43,0,1.57-.01,2.84-.07,3.8v.02ZM340.97,164.06c-.14,3.14-1.12,5.06-2.96,5.75-.74.28-1.48.32-2.23.13s-1.54-.76-2.37-1.71-1.72-2.35-2.67-4.19-1.99-4.28-3.13-7.31c-1.14-3.04-1.7-5.87-1.69-8.49.01-2.63.39-5.2,1.12-7.73.73-2.53,1.7-5.04,2.91-7.54,1.22-2.5,2.47-5.09,3.77-7.78.48-1.23.98-2.34,1.51-3.32.52-.98,1.03-1.93,1.53-2.85.34,3.43.72,6.82,1.14,10.18.42,3.35.78,6.49,1.09,9.41s.6,5.52.86,7.78c.27,2.26.47,3.99.61,5.19.47,5.17.63,9.33.5,12.47h.01ZM397.62,61.26c-.17,1.56-.35,2.81-.51,3.77-.26.98-.7,2.29-1.29,3.96-.6,1.66-1.45,3.37-2.53,5.1-1.09,1.73-2.38,3.34-3.89,4.82-1.5,1.49-3.25,2.47-5.26,2.96-3.62.9-6.3.27-8.04-1.88-1.74-2.15-3.11-5.22-4.1-9.22-.8-3.24-1.17-6.77-1.09-10.57.07-3.81.57-7.42,1.5-10.83.92-3.41,2.23-6.33,3.9-8.77,1.68-2.43,3.71-3.94,6.09-4.53,1.43-.35,2.9.1,4.42,1.33,1.52,1.24,2.93,3.47,4.23,6.69.26.65.51,1.39.78,2.23.26.85.59,1.68.99,2.48.4.81.85,1.51,1.35,2.1.5.58,1.05.85,1.64.8.69-.07,1.19.42,1.5,1.45.3,1.04.48,2.26.52,3.66.04,1.4-.02,2.89-.19,4.44h-.02ZM398.53,109.49c.02,3.38.02,6.54,0,9.48-.04,2.94-.05,5.55-.04,7.82v5.23c-.14,5.19-.45,9.34-.95,12.45-.5,3.1-1.7,4.89-3.6,5.36-.76.19-1.5.15-2.23-.13-.73-.27-1.45-.93-2.16-1.97-.71-1.03-1.43-2.52-2.17-4.47-.73-1.94-1.48-4.48-2.26-7.63-.78-3.14-1.01-6.02-.69-8.62s.98-5.12,2-7.55c1.02-2.42,2.28-4.81,3.77-7.15,1.49-2.34,3.04-4.77,4.64-7.29.62-1.17,1.25-2.2,1.89-3.12.63-.91,1.25-1.8,1.85-2.66-.06,3.45-.08,6.86-.05,10.25h0Z"/>
      <path class="cls-4" d="M239.88,23.92c.03.27.09.53.11.82.02-.09-.02-.38-.11-.82Z"/>
    </g>
    <path class="cls-4" d="M238.06,100.24c-.44-.22-.96-.23-1.57-.03-.61.2-1.16.65-1.64,1.33-.4.57-1.11,1.79-2.13,3.65-1.02,1.87-2.28,4.06-3.79,6.56s-3.17,5.16-4.98,7.96c-1.81,2.8-3.64,5.41-5.52,7.83s-3.69,4.47-5.43,6.17c-1.75,1.7-3.3,2.66-4.65,2.9-1.16.2-2.32-.15-3.47-1.05-1.15-.9-1.88-2.56-2.21-5-.19-1.66-.3-3.88-.33-6.66s-.07-5.72-.1-8.8c2.36-5.38,4.45-11,6.28-16.84s3.34-11.63,4.54-17.37c1.19-5.73,2.02-11.23,2.46-16.48s.38-10.02-.16-14.31c-.41-3.51-.89-6.27-1.43-8.27-.55-2-1.17-3.46-1.88-4.38-.71-.92-1.47-1.44-2.29-1.55-.81-.11-1.7-.08-2.67.09-.77.13-1.57.42-2.39.86-.74.33-1.51.76-2.32,1.3-.81.54-1.63,1.28-2.45,2.22-.66,5.39-1.22,10.52-1.67,15.38-.46,4.86-.86,9.16-1.21,12.91-.35,4.34-.69,8.39-1.04,12.13-.16,2.52-.3,5.19-.41,7.99-.11,2.81-.27,5.68-.46,8.59-.52-1.3-1.23-2.67-2.13-4.11-.9-1.44-1.94-2.73-3.14-3.87-1.19-1.14-2.53-2-4.03-2.59s-3.07-.74-4.71-.46c-3.77.66-7.33,2.39-10.67,5.21-3.35,2.82-6.18,6.34-8.48,10.58-2.31,4.23-3.99,9.03-5.06,14.39-.8,4.01-1.11,8.1-.93,12.28-.5,1.75-1.01,3.53-1.58,5.37-.88,2.87-1.76,5.52-2.66,7.97-.89,2.45-1.83,4.54-2.81,6.28s-1.92,2.79-2.83,3.17c-1.09.45-2.03.56-2.82.3-.8-.25-1.5-.73-2.11-1.43s-1.14-1.52-1.58-2.45-.79-1.82-1.03-2.68c-.3-1.47-.54-2.7-.74-3.68-.2-.98-.37-1.84-.52-2.57-.15-.74-.3-1.47-.45-2.21s-.3-1.55-.46-2.44c-.83-4.54-1.52-8.24-2.08-11.1-.55-2.85-1.01-5.11-1.38-6.76-.37-1.65-.68-2.77-.92-3.36-.25-.59-.45-.95-.62-1.1-.22-.02-.6.09-1.15.32-.46.19-1.09.51-1.91.96-.82.45-1.81,1.07-2.97,1.87.7-3.69.47-6.34-.67-7.93-1.14-1.6-2.54-2.58-4.19-2.96-1.95-.35-4.25-.24-6.88.32-2.16.69-4.48,2.51-6.97,5.46-2.5,2.95-4.7,6.72-6.62,11.29-1.92,4.58-3.32,9.71-4.19,15.39-.88,5.68-.79,11.55.24,17.6.15.97.33,1.89.51,2.78-.59-.65-1.21-1.3-1.89-1.92-2.16-1.98-4.65-3.68-7.49-5.08-2.84-1.4-5.89-2.43-9.15-3.08-3.27-.64-6.66-.85-10.17-.62,1.7-4.33,2.97-8.7,3.79-13.1.83-4.4,1.28-8.66,1.35-12.78.07-4.12-.27-8.03-1.03-11.71s-1.92-6.96-3.48-9.81c-1.83-3.26-4.17-5.95-7.01-8.06-2.84-2.11-6.07-3.46-9.71-4.03s-7.62-.3-11.94.83c-4.32,1.13-8.85,3.28-13.57,6.45-1.14.77-2.21,1.54-3.22,2.34-1,.79-2.02,1.65-3.05,2.58-1.06-.35-2.63-.13-4.69.67-.93.38-1.78.78-2.57,1.19-.78.41-1.43.96-1.91,1.64-.49.68-.79,1.6-.91,2.74s.04,2.57.48,4.29c-1.76,2.48-3.54,5.16-5.35,8.02-1.8,2.86-3.49,6.01-5.09,9.45.11,1.22.42,2.35.93,3.36.51,1.02,1.05,1.87,1.62,2.54.68.84,1.38,1.62,2.09,2.32,1.59,1.3,3.09,1.74,4.52,1.31,1.43-.42,2.37-1.62,2.82-3.58.43-1.83.9-3.56,1.39-5.19.5-1.63,1.05-3.24,1.64-4.82.93,2.8,2.36,7.13,4.29,12.99,1.92,5.86,4.08,12.42,6.47,19.68s4.85,14.76,7.4,22.51c2.54,7.75,4.91,14.93,7.11,21.56,2.2,6.62,4.05,12.24,5.54,16.84,1.5,4.61,2.41,7.34,2.74,8.18.5,1.44.87,2.58,1.13,3.4.26.83.49,1.47.68,1.94.19.46.41.88.66,1.24.25.37.63.85,1.15,1.45.85,1.08,1.7,1.79,2.56,2.1.86.31,1.79.42,2.8.34.57-.03,1.49-.2,2.76-.52,1.26-.32,2.77-.76,4.51-1.34s3.62-1.34,5.64-2.29c2.03-.95,4.1-2.13,6.22-3.55,5.7-3.83,10.72-8.32,15.06-13.48,4.34-5.15,7.65-10.65,9.94-16.5,2.28-5.85,3.35-11.86,3.23-18.04-.06-2.82-.45-5.61-1.15-8.35.19.17.38.34.57.5,1.77,1.44,3.56,2.29,5.37,2.55,1.81.26,3.35.12,4.62-.41,2.64-1.32,5.11-3.04,7.41-5.17,1.98-1.89,3.87-4.35,5.69-7.39,1.81-3.04,3.05-6.83,3.72-11.36.93,2.48,1.94,4.45,3.02,5.91,1.09,1.46,2.07,2.59,2.94,3.4,1.03.96,2.09,1.58,3.17,1.87,1.04.21,2.15.19,3.33-.03,1.18-.23,2.36-.64,3.55-1.24s2.29-1.33,3.32-2.17c1.02-.86,1.88-1.74,2.56-2.67.98-1.47,2.03-3.74,3.14-6.81.8-2.19,1.56-4.51,2.31-6.95.11.24.22.48.34.71,1.21,2.39,2.55,4.24,4.02,5.58s3.05,2.22,4.71,2.62c1.66.41,3.17.49,4.53.26,3.77-.65,7.48-2.67,11.13-6.03,3.65-3.37,7.11-7.68,10.39-12.93.09,1.68.15,2.87.17,3.56.17,1.57.65,3.08,1.45,4.53.8,1.46,1.79,2.73,2.98,3.82,1.18,1.09,2.45,1.92,3.79,2.48,1.34.57,2.69.74,4.04.5,1.83-.31,3.79-1.28,5.85-2.88,2.06-1.6,4.16-3.58,6.29-5.94,2.13-2.36,4.21-5.01,6.24-7.95s3.93-5.91,5.71-8.9c1.77-3,3.36-5.89,4.78-8.67,1.41-2.78,2.54-5.19,3.38-7.23.57-1.3.79-2.33.66-3.1-.13-.77-.42-1.27-.86-1.49v-.05ZM40.47,161.72c-.34-.95-.71-1.89-1.09-2.82-1.79-4.94-3.46-9.91-5.03-14.89-1.57-4.97-3.06-9.71-4.48-14.2-1.41-4.48-2.68-8.62-3.81-12.42-1.13-3.79-2.08-6.97-2.85-9.53,2.47-3.19,5.17-5.77,8.1-7.74,4.41-2.95,8.72-3.87,12.96-2.75,4.23,1.12,8,4.65,11.28,10.6,1.34,2.53,2.43,5.52,3.27,8.97.84,3.45,1.36,7.04,1.55,10.75.19,3.72,0,7.44-.56,11.19s-1.49,7.12-2.78,10.12c-1.09.49-2.2,1.03-3.34,1.62s-2.28,1.27-3.42,2.03c-2.12,1.43-4.04,3.36-5.76,5.82-1.72,2.45-2.71,4.54-2.98,6.26-.36-1.06-.71-2.07-1.05-3.02h-.01ZM88.57,197.33c-1.32,4.9-3.37,9.38-6.14,13.44-2.78,4.05-6,7.31-9.66,9.76-1.06.71-2.1,1.29-3.1,1.73-.93.38-1.85.76-2.77,1.15-.92.38-1.77.54-2.53.46-3.05-7.53-5.91-14.62-8.6-21.27-2.69-6.64-4.98-12.52-6.87-17.63-2.3-5.9-4.37-11.43-6.18-16.6.57.68,1.33,1.29,2.29,1.83.95.54,2,.87,3.15.99,1.14.12,2.34-.03,3.59-.46,1.25-.43,2.47-1.34,3.67-2.73,3.55-4.39,6.52-8.87,8.9-13.42,1.77,0,3.57.17,5.41.53s3.66.97,5.48,1.82,3.53,2,5.15,3.45c1.63,1.46,3.09,3.34,4.41,5.64,2.87,5.16,4.55,10.45,5.05,15.85.49,5.4.08,10.56-1.23,15.46h-.02ZM126.7,144.19c-.27,1.28-.68,2.73-1.22,4.34-.55,1.61-1.26,3.23-2.12,4.87s-1.81,3.07-2.84,4.29c-1.03,1.23-2.17,2.13-3.42,2.7-1.25.58-2.58.57-3.99,0-.77-.32-1.62-1.32-2.53-3.01-.92-1.69-1.71-3.78-2.38-6.27-.66-2.48-1.14-5.24-1.44-8.25s-.26-5.98.12-8.9c.88-7.07,2.12-12.18,3.72-15.35,1.61-3.17,3.07-4.55,4.41-4.15.43.25.81.68,1.17,1.27.32.51.61,1.26.87,2.27.26,1.01.33,2.39.21,4.14.65-.48,1.31-.92,2-1.31s1.22-.77,1.6-1.14c.47-.41.91-.75,1.32-1.03.33-.24.69.43,1.08,2.02.4,1.59.84,3.61,1.33,6.06.49,2.46.93,5.03,1.32,7.75.38,2.71.73,5.06,1.03,7.06.1.49.01,1.38-.25,2.66h0ZM194.14,112.76c-.02,1.9-.06,3.8-.13,5.7-.83,1.54-1.92,3.47-3.26,5.79-1.35,2.32-2.84,4.62-4.48,6.9-1.65,2.28-3.4,4.27-5.24,5.98-1.85,1.72-3.64,2.72-5.38,3.02-2.32.4-4.33-.3-6.04-2.1-1.7-1.8-2.86-5.03-3.46-9.71-.31-2.93-.11-6.35.62-10.26.71-3.91,1.82-7.66,3.29-11.25,1.47-3.59,3.17-6.72,5.1-9.4,1.93-2.67,4-4.2,6.23-4.59,1.55-.27,2.87.13,3.94,1.19,1.08,1.06,1.98,2.35,2.68,3.87.71,1.52,1.24,3.02,1.6,4.5s.58,2.51.68,3.1c.2,1.16.54,1.97,1.02,2.44.48.47,1.21.37,2.19-.3.18-.13.33-.25.46-.38.13-.12.28-.25.46-.38-.15,2.02-.23,3.98-.26,5.87h-.02Z"/>
  </g>
</svg>